<svg width="27" height="12" viewBox="0 0 27 12" fill="none" xmlns="http://www.w3.org/2000/svg">
<path d="M7.25369 12H1.10969C0.907021 12 0.757688 11.9573 0.661688 11.872C0.576354 11.776 0.533688 11.6267 0.533688 11.424V1.056C0.533688 0.853333 0.576354 0.709333 0.661688 0.624C0.757688 0.528 0.907021 0.48 1.10969 0.48H6.21369C7.25902 0.48 8.03235 0.682666 8.53369 1.088C9.03502 1.48267 9.28569 2.096 9.28569 2.928V3.696C9.28569 4.144 9.20569 4.512 9.04569 4.8C8.89635 5.07733 8.66169 5.28533 8.34169 5.424C9.02435 5.488 9.53102 5.72267 9.86169 6.128C10.1924 6.53333 10.3577 7.12533 10.3577 7.904V9.376C10.3577 10.272 10.1017 10.9333 9.58969 11.36C9.08835 11.7867 8.30969 12 7.25369 12ZM2.30969 10.56H6.61369C7.06169 10.56 7.42435 10.5227 7.70169 10.448C7.97902 10.3627 8.18702 10.2507 8.32569 10.112C8.47502 9.97333 8.57635 9.808 8.62969 9.616C8.68302 9.41333 8.70969 9.19467 8.70969 8.96V7.936C8.70969 7.66933 8.68302 7.424 8.62969 7.2C8.58702 6.976 8.49102 6.784 8.34169 6.624C8.19235 6.45333 7.97902 6.32533 7.70169 6.24C7.42435 6.144 7.06702 6.096 6.62969 6.096C7.08835 5.97867 7.37102 5.78667 7.47769 5.52C7.59502 5.25333 7.65369 4.96 7.65369 4.64V3.616C7.65369 3.38133 7.62702 3.16267 7.57369 2.96C7.52035 2.75733 7.41902 2.58133 7.26969 2.432C7.12035 2.272 6.90702 2.14933 6.62969 2.064C6.35235 1.968 5.99502 1.92 5.55769 1.92H2.30969V10.56ZM5.55769 2.08C6.35769 2.08 6.88035 2.22933 7.12569 2.528C7.37102 2.82667 7.49369 3.18933 7.49369 3.616V4.64C7.49369 4.832 7.47235 5.01867 7.42969 5.2C7.39769 5.37067 7.31235 5.52533 7.17369 5.664C7.04569 5.792 6.85369 5.89867 6.59769 5.984C6.34169 6.05867 5.99502 6.096 5.55769 6.096H2.46969V2.08H5.55769ZM4.13369 3.2V4.928H5.49369C5.69635 4.928 5.84569 4.87467 5.94169 4.768C6.04835 4.66133 6.10169 4.50133 6.10169 4.288V3.84C6.10169 3.62667 6.04835 3.46667 5.94169 3.36C5.84569 3.25333 5.69635 3.2 5.49369 3.2H4.13369ZM6.62969 6.256C7.42969 6.256 7.94702 6.416 8.18169 6.736C8.42702 7.056 8.54969 7.456 8.54969 7.936V8.96C8.54969 9.39733 8.42702 9.74933 8.18169 10.016C7.93635 10.272 7.41369 10.4 6.61369 10.4H2.46969V6.256H6.62969ZM4.13369 7.392V9.28H6.21369C6.41635 9.28 6.56569 9.22667 6.66169 9.12C6.76835 9.01333 6.82169 8.85333 6.82169 8.64V8.016C6.82169 7.80267 6.76835 7.648 6.66169 7.552C6.56569 7.44533 6.41635 7.392 6.21369 7.392H4.13369Z" fill="white"/>
<path d="M15.7114 12H12.4794C12.2768 12 12.1274 11.9573 12.0314 11.872C11.9461 11.776 11.9034 11.6267 11.9034 11.424V8.176C11.9034 7.97333 11.9461 7.82933 12.0314 7.744C12.1274 7.648 12.2768 7.6 12.4794 7.6H15.7114C15.9141 7.6 16.0581 7.648 16.1434 7.744C16.2394 7.82933 16.2874 7.97333 16.2874 8.176V11.424C16.2874 11.6267 16.2394 11.776 16.1434 11.872C16.0581 11.9573 15.9141 12 15.7114 12ZM14.0154 10.56H14.1754V9.04H14.0154V10.56ZM23.6121 12H18.5561C18.3534 12 18.2041 11.9573 18.1081 11.872C18.0227 11.776 17.9801 11.6267 17.9801 11.424V9.552C17.9801 9.34933 18.0227 9.20533 18.1081 9.12C18.2041 9.024 18.3534 8.976 18.5561 8.976H22.8601C22.9987 8.976 23.1001 8.93333 23.1641 8.848C23.2387 8.752 23.2761 8.64 23.2761 8.512C23.2761 8.33067 23.2387 8.19733 23.1641 8.112C23.1001 8.02667 22.9987 7.97867 22.8601 7.968L20.4601 7.632C19.7134 7.52533 19.1107 7.28 18.6521 6.896C18.2041 6.512 17.9801 5.872 17.9801 4.976V3.296C17.9801 2.38933 18.2734 1.696 18.8601 1.216C19.4467 0.725333 20.2574 0.48 21.2921 0.48H25.7721C25.9747 0.48 26.1187 0.528 26.2041 0.624C26.3001 0.709333 26.3481 0.853333 26.3481 1.056V2.96C26.3481 3.16267 26.3001 3.312 26.2041 3.408C26.1187 3.49333 25.9747 3.536 25.7721 3.536H22.0441C21.9054 3.536 21.7987 3.584 21.7241 3.68C21.6494 3.76533 21.6121 3.87733 21.6121 4.016C21.6121 4.15467 21.6494 4.272 21.7241 4.368C21.7987 4.464 21.9054 4.51733 22.0441 4.528L24.4281 4.848C25.1747 4.95467 25.7774 5.2 26.2361 5.584C26.6947 5.968 26.9241 6.608 26.9241 7.504V9.184C26.9241 10.0907 26.6254 10.7893 26.0281 11.28C25.4414 11.76 24.6361 12 23.6121 12ZM24.9081 1.92H21.3561C20.8654 1.92 20.4707 2.05867 20.1721 2.336C19.8734 2.60267 19.7241 2.94933 19.7241 3.376V4.688C19.7241 5.12533 19.8094 5.42933 19.9801 5.6C20.1614 5.76 20.3907 5.86667 20.6681 5.92L24.0441 6.608C24.3427 6.672 24.5774 6.8 24.7481 6.992C24.9294 7.17333 25.0201 7.51467 25.0201 8.016V8.944C25.0201 9.37067 24.8707 9.72267 24.5721 10C24.2841 10.2667 23.8947 10.4 23.4041 10.4H19.4201V10.56H23.4041C23.9481 10.56 24.3801 10.4107 24.7001 10.112C25.0201 9.80267 25.1801 9.41333 25.1801 8.944V8.016C25.1801 7.46133 25.0734 7.07733 24.8601 6.864C24.6574 6.65067 24.3961 6.512 24.0761 6.448L20.7001 5.76C20.4547 5.71733 20.2574 5.62133 20.1081 5.472C19.9587 5.32267 19.8841 5.06133 19.8841 4.688V3.376C19.8841 3.00267 20.0174 2.69333 20.2841 2.448C20.5507 2.20267 20.9081 2.08 21.3561 2.08H24.9081V1.92Z" fill="#E3E627"/>
</svg>
