<svg width="95" height="13" viewBox="0 0 95 13" fill="none" xmlns="http://www.w3.org/2000/svg">
<path d="M6.98806 12H0.844063C0.641396 12 0.492063 11.9573 0.396063 11.872C0.310729 11.776 0.268063 11.6267 0.268063 11.424V1.056C0.268063 0.853333 0.310729 0.709333 0.396063 0.624C0.492063 0.528 0.641396 0.48 0.844063 0.48H5.94806C6.9934 0.48 7.76673 0.682666 8.26806 1.088C8.7694 1.48267 9.02006 2.096 9.02006 2.928V3.696C9.02006 4.144 8.94006 4.512 8.78006 4.8C8.63073 5.07733 8.39606 5.28533 8.07606 5.424C8.75873 5.488 9.2654 5.72267 9.59606 6.128C9.92673 6.53333 10.0921 7.12533 10.0921 7.904V9.376C10.0921 10.272 9.83606 10.9333 9.32406 11.36C8.82273 11.7867 8.04406 12 6.98806 12ZM2.04406 10.56H6.34806C6.79606 10.56 7.15873 10.5227 7.43606 10.448C7.7134 10.3627 7.9214 10.2507 8.06006 10.112C8.2094 9.97333 8.31073 9.808 8.36406 9.616C8.4174 9.41333 8.44406 9.19467 8.44406 8.96V7.936C8.44406 7.66933 8.4174 7.424 8.36406 7.2C8.3214 6.976 8.2254 6.784 8.07606 6.624C7.92673 6.45333 7.7134 6.32533 7.43606 6.24C7.15873 6.144 6.8014 6.096 6.36406 6.096C6.82273 5.97867 7.1054 5.78667 7.21206 5.52C7.3294 5.25333 7.38806 4.96 7.38806 4.64V3.616C7.38806 3.38133 7.3614 3.16267 7.30806 2.96C7.25473 2.75733 7.1534 2.58133 7.00406 2.432C6.85473 2.272 6.6414 2.14933 6.36406 2.064C6.08673 1.968 5.7294 1.92 5.29206 1.92H2.04406V10.56ZM5.29206 2.08C6.09206 2.08 6.61473 2.22933 6.86006 2.528C7.1054 2.82667 7.22806 3.18933 7.22806 3.616V4.64C7.22806 4.832 7.20673 5.01867 7.16406 5.2C7.13206 5.37067 7.04673 5.52533 6.90806 5.664C6.78006 5.792 6.58806 5.89867 6.33206 5.984C6.07606 6.05867 5.7294 6.096 5.29206 6.096H2.20406V2.08H5.29206ZM3.86806 3.2V4.928H5.22806C5.43073 4.928 5.58006 4.87467 5.67606 4.768C5.78273 4.66133 5.83606 4.50133 5.83606 4.288V3.84C5.83606 3.62667 5.78273 3.46667 5.67606 3.36C5.58006 3.25333 5.43073 3.2 5.22806 3.2H3.86806ZM6.36406 6.256C7.16406 6.256 7.6814 6.416 7.91606 6.736C8.1614 7.056 8.28406 7.456 8.28406 7.936V8.96C8.28406 9.39733 8.1614 9.74933 7.91606 10.016C7.67073 10.272 7.14806 10.4 6.34806 10.4H2.20406V6.256H6.36406ZM3.86806 7.392V9.28H5.94806C6.15073 9.28 6.30006 9.22667 6.39606 9.12C6.50273 9.01333 6.55606 8.85333 6.55606 8.64V8.016C6.55606 7.80267 6.50273 7.648 6.39606 7.552C6.30006 7.44533 6.15073 7.392 5.94806 7.392H3.86806ZM20.5818 12H12.4378C12.2351 12 12.0858 11.9573 11.9898 11.872C11.9045 11.776 11.8618 11.6267 11.8618 11.424V1.056C11.8618 0.853333 11.9045 0.709333 11.9898 0.624C12.0858 0.528 12.2351 0.48 12.4378 0.48H14.9178C15.1205 0.48 15.2645 0.528 15.3498 0.624C15.4458 0.709333 15.4938 0.853333 15.4938 1.056V8.976H17.6858V6.384C17.6858 6.18133 17.7285 6.03733 17.8138 5.952C17.9098 5.856 18.0591 5.808 18.2618 5.808H20.5818C20.7845 5.808 20.9285 5.856 21.0138 5.952C21.1098 6.03733 21.1578 6.18133 21.1578 6.384V11.424C21.1578 11.6267 21.1098 11.776 21.0138 11.872C20.9285 11.9573 20.7845 12 20.5818 12ZM13.6058 10.56H19.4938V7.248H19.3338V10.4H13.7658V1.92H13.6058V10.56ZM32.7468 8.976C32.7468 9.46667 32.6721 9.91467 32.5228 10.32C32.3841 10.7147 32.1281 11.056 31.7548 11.344C31.3921 11.6213 30.8855 11.84 30.2348 12C29.5948 12.16 28.7788 12.24 27.7868 12.24C26.7948 12.24 25.9735 12.16 25.3228 12C24.6721 11.84 24.1601 11.6213 23.7868 11.344C23.4241 11.056 23.1681 10.7147 23.0188 10.32C22.8801 9.91467 22.8108 9.46667 22.8108 8.976V3.52C22.8108 3.02933 22.8801 2.58667 23.0188 2.192C23.1681 1.78667 23.4241 1.44 23.7868 1.152C24.1601 0.863999 24.6721 0.639999 25.3228 0.48C25.9735 0.32 26.7948 0.24 27.7868 0.24C28.7788 0.24 29.5948 0.32 30.2348 0.48C30.8855 0.639999 31.3921 0.863999 31.7548 1.152C32.1281 1.44 32.3841 1.78667 32.5228 2.192C32.6721 2.58667 32.7468 3.02933 32.7468 3.52V8.976ZM31.0028 8.608V3.888C31.0028 3.248 30.7735 2.73067 30.3148 2.336C29.8561 1.93067 29.0028 1.728 27.7548 1.728C26.5068 1.728 25.6588 1.93067 25.2108 2.336C24.7628 2.73067 24.5388 3.248 24.5388 3.888V8.608C24.5388 9.248 24.7628 9.77067 25.2108 10.176C25.6588 10.5707 26.5068 10.768 27.7548 10.768C29.0028 10.768 29.8561 10.5707 30.3148 10.176C30.7735 9.77067 31.0028 9.248 31.0028 8.608ZM24.6988 8.608V3.888C24.6988 3.29067 24.9121 2.81067 25.3388 2.448C25.7655 2.07467 26.5708 1.888 27.7548 1.888C28.9388 1.888 29.7495 2.07467 30.1868 2.448C30.6241 2.81067 30.8428 3.29067 30.8428 3.888V8.608C30.8428 9.20533 30.6241 9.69067 30.1868 10.064C29.7495 10.4267 28.9388 10.608 27.7548 10.608C26.5708 10.608 25.7655 10.4267 25.3388 10.064C24.9121 9.69067 24.6988 9.20533 24.6988 8.608ZM26.4428 8.4C26.4428 8.61333 26.5228 8.79467 26.6828 8.944C26.8428 9.08267 27.2108 9.152 27.7868 9.152C28.3628 9.152 28.7308 9.08267 28.8908 8.944C29.0508 8.79467 29.1308 8.61333 29.1308 8.4V4.096C29.1308 3.89333 29.0508 3.72267 28.8908 3.584C28.7308 3.43467 28.3628 3.36 27.7868 3.36C27.2108 3.36 26.8428 3.43467 26.6828 3.584C26.5228 3.72267 26.4428 3.89333 26.4428 4.096V8.4ZM43.5837 12H38.5437C37.2104 12 36.2184 11.7333 35.5677 11.2C34.9277 10.6667 34.6077 9.84533 34.6077 8.736V3.744C34.6077 2.63467 34.9277 1.81333 35.5677 1.28C36.2184 0.746666 37.2104 0.48 38.5437 0.48H42.5437C42.7464 0.48 42.8904 0.528 42.9757 0.624C43.0717 0.709333 43.1197 0.853333 43.1197 1.056V2.992C43.1197 3.19467 43.0717 3.344 42.9757 3.44C42.8904 3.52533 42.7464 3.568 42.5437 3.568H39.2157C38.885 3.568 38.6397 3.63733 38.4797 3.776C38.3197 3.904 38.2397 4.10133 38.2397 4.368V8.192C38.2397 8.45867 38.2984 8.656 38.4157 8.784C38.5437 8.912 38.7304 8.976 38.9757 8.976H40.5277V6.48C40.5277 6.27733 40.5704 6.13333 40.6557 6.048C40.7517 5.952 40.901 5.904 41.1037 5.904H43.5837C43.7864 5.904 43.9304 5.952 44.0157 6.048C44.1117 6.13333 44.1597 6.27733 44.1597 6.48V11.424C44.1597 11.6267 44.1117 11.776 44.0157 11.872C43.9304 11.9573 43.7864 12 43.5837 12ZM39.2317 10.56H42.4157V7.344H42.2557V10.4H39.2317C38.1544 10.4 37.429 10.256 37.0557 9.968C36.693 9.68 36.5117 9.18933 36.5117 8.496V4.016C36.5117 3.312 36.677 2.816 37.0077 2.528C37.3384 2.22933 37.973 2.08 38.9117 2.08H41.6797V1.92H38.9117C37.8877 1.92 37.205 2.08 36.8637 2.4C36.5224 2.72 36.3517 3.25867 36.3517 4.016V8.496C36.3517 8.86933 36.389 9.18933 36.4637 9.456C36.549 9.712 36.6984 9.92533 36.9117 10.096C37.125 10.256 37.4184 10.3733 37.7917 10.448C38.165 10.5227 38.645 10.56 39.2317 10.56Z" fill="white"/>
<path d="M49.6958 12H46.4638C46.2611 12 46.1118 11.9573 46.0158 11.872C45.9305 11.776 45.8878 11.6267 45.8878 11.424V8.176C45.8878 7.97333 45.9305 7.82933 46.0158 7.744C46.1118 7.648 46.2611 7.6 46.4638 7.6H49.6958C49.8985 7.6 50.0425 7.648 50.1278 7.744C50.2238 7.82933 50.2718 7.97333 50.2718 8.176V11.424C50.2718 11.6267 50.2238 11.776 50.1278 11.872C50.0425 11.9573 49.8985 12 49.6958 12ZM47.9998 10.56H48.1598V9.04H47.9998V10.56ZM57.5964 12H52.5404C52.3378 12 52.1884 11.9573 52.0924 11.872C52.0071 11.776 51.9644 11.6267 51.9644 11.424V9.552C51.9644 9.34933 52.0071 9.20533 52.0924 9.12C52.1884 9.024 52.3378 8.976 52.5404 8.976H56.8444C56.9831 8.976 57.0844 8.93333 57.1484 8.848C57.2231 8.752 57.2604 8.64 57.2604 8.512C57.2604 8.33067 57.2231 8.19733 57.1484 8.112C57.0844 8.02667 56.9831 7.97867 56.8444 7.968L54.4444 7.632C53.6978 7.52533 53.0951 7.28 52.6364 6.896C52.1884 6.512 51.9644 5.872 51.9644 4.976V3.296C51.9644 2.38933 52.2578 1.696 52.8444 1.216C53.4311 0.725333 54.2418 0.48 55.2764 0.48H59.7564C59.9591 0.48 60.1031 0.528 60.1884 0.624C60.2844 0.709333 60.3324 0.853333 60.3324 1.056V2.96C60.3324 3.16267 60.2844 3.312 60.1884 3.408C60.1031 3.49333 59.9591 3.536 59.7564 3.536H56.0284C55.8898 3.536 55.7831 3.584 55.7084 3.68C55.6338 3.76533 55.5964 3.87733 55.5964 4.016C55.5964 4.15467 55.6338 4.272 55.7084 4.368C55.7831 4.464 55.8898 4.51733 56.0284 4.528L58.4124 4.848C59.1591 4.95467 59.7618 5.2 60.2204 5.584C60.6791 5.968 60.9084 6.608 60.9084 7.504V9.184C60.9084 10.0907 60.6098 10.7893 60.0124 11.28C59.4258 11.76 58.6204 12 57.5964 12ZM58.8924 1.92H55.3404C54.8498 1.92 54.4551 2.05867 54.1564 2.336C53.8578 2.60267 53.7084 2.94933 53.7084 3.376V4.688C53.7084 5.12533 53.7938 5.42933 53.9644 5.6C54.1458 5.76 54.3751 5.86667 54.6524 5.92L58.0284 6.608C58.3271 6.672 58.5618 6.8 58.7324 6.992C58.9138 7.17333 59.0044 7.51467 59.0044 8.016V8.944C59.0044 9.37067 58.8551 9.72267 58.5564 10C58.2684 10.2667 57.8791 10.4 57.3884 10.4H53.4044V10.56H57.3884C57.9324 10.56 58.3644 10.4107 58.6844 10.112C59.0044 9.80267 59.1644 9.41333 59.1644 8.944V8.016C59.1644 7.46133 59.0578 7.07733 58.8444 6.864C58.6418 6.65067 58.3804 6.512 58.0604 6.448L54.6844 5.76C54.4391 5.71733 54.2418 5.62133 54.0924 5.472C53.9431 5.32267 53.8684 5.06133 53.8684 4.688V3.376C53.8684 3.00267 54.0018 2.69333 54.2684 2.448C54.5351 2.20267 54.8924 2.08 55.3404 2.08H58.8924V1.92ZM67.9424 12H65.3504C65.1478 12 64.9984 11.9573 64.9024 11.872C64.8171 11.776 64.7744 11.6267 64.7744 11.424V3.568H62.4224C62.2198 3.568 62.0704 3.52533 61.9744 3.44C61.8891 3.344 61.8464 3.19467 61.8464 2.992V1.056C61.8464 0.853333 61.8891 0.709333 61.9744 0.624C62.0704 0.528 62.2198 0.48 62.4224 0.48H70.8704C71.0731 0.48 71.2171 0.528 71.3024 0.624C71.3984 0.709333 71.4464 0.853333 71.4464 1.056V2.992C71.4464 3.19467 71.3984 3.344 71.3024 3.44C71.2171 3.52533 71.0731 3.568 70.8704 3.568H68.5184V11.424C68.5184 11.6267 68.4704 11.776 68.3744 11.872C68.2891 11.9573 68.1451 12 67.9424 12ZM66.5664 10.56H66.7264V2.08H70.0064V1.92H63.2864V2.08H66.5664V10.56ZM73.9778 7.152C73.9778 6.864 73.9991 6.59733 74.0418 6.352C74.0951 6.10667 74.1591 5.87733 74.2338 5.664L75.2578 3.04C75.3645 2.77333 75.4818 2.54933 75.6098 2.368C75.7378 2.176 75.9618 2.08 76.2818 2.08H77.8498C78.1485 2.08 78.3618 2.176 78.4898 2.368C78.6178 2.54933 78.7405 2.77867 78.8578 3.056L79.9618 5.664C80.0365 5.87733 80.0951 6.10667 80.1378 6.352C80.1911 6.59733 80.2178 6.864 80.2178 7.152V7.648H73.9778V7.152ZM76.5378 3.84L75.7858 6.272H78.2978L77.5458 3.84C77.5031 3.744 77.4551 3.67467 77.4018 3.632C77.3591 3.58933 77.3058 3.568 77.2418 3.568H76.8418C76.7778 3.568 76.7191 3.58933 76.6658 3.632C76.6231 3.67467 76.5805 3.744 76.5378 3.84ZM80.2178 10.56H80.3778V7.152C80.3778 6.85333 80.3511 6.58133 80.2978 6.336C80.2551 6.08 80.1911 5.83467 80.1058 5.6L79.0018 2.992C78.8738 2.68267 78.7351 2.42667 78.5858 2.224C78.4471 2.02133 78.2018 1.92 77.8498 1.92H76.2818C75.9191 1.92 75.6631 2.02133 75.5138 2.224C75.3645 2.42667 75.2311 2.67733 75.1138 2.976L74.0898 5.6C74.0045 5.83467 73.9351 6.08 73.8818 6.336C73.8391 6.58133 73.8178 6.85333 73.8178 7.152V10.56H73.9778V7.808H80.2178V10.56ZM75.6258 11.424C75.6258 11.6267 75.5778 11.776 75.4818 11.872C75.3965 11.9573 75.2525 12 75.0498 12H72.6978C72.4951 12 72.3458 11.9573 72.2498 11.872C72.1645 11.776 72.1218 11.6267 72.1218 11.424V7.2C72.1218 6.88 72.1698 6.512 72.2658 6.096C72.3725 5.68 72.5325 5.19467 72.7458 4.64L74.1378 1.008C74.2018 0.826666 74.2978 0.693333 74.4258 0.608C74.5645 0.522666 74.7405 0.48 74.9538 0.48H79.2578C79.4605 0.48 79.6258 0.522666 79.7538 0.608C79.8925 0.693333 79.9938 0.826666 80.0578 1.008L81.4498 4.64C81.6631 5.19467 81.8178 5.68 81.9138 6.096C82.0205 6.512 82.0738 6.88 82.0738 7.2V11.424C82.0738 11.6267 82.0258 11.776 81.9298 11.872C81.8445 11.9573 81.7005 12 81.4978 12H79.0818C78.8685 12 78.7085 11.9573 78.6018 11.872C78.5058 11.776 78.4578 11.6267 78.4578 11.424V9.184H75.6258V11.424ZM89.4253 2.08C89.9906 2.08 90.4066 2.23467 90.6733 2.544C90.9506 2.85333 91.0893 3.25333 91.0893 3.744V4.864C91.0893 5.45067 90.9773 5.904 90.7533 6.224C90.5293 6.544 90.0866 6.704 89.4253 6.704H85.9373V2.08H89.4253ZM87.6653 3.36V5.408H88.8653C89.1426 5.408 89.3293 5.33867 89.4253 5.2C89.5213 5.05067 89.5693 4.86933 89.5693 4.656V4.112C89.5693 3.89867 89.5213 3.72267 89.4253 3.584C89.3293 3.43467 89.1426 3.36 88.8653 3.36H87.6653ZM85.9373 10.56V6.848H90.4653C91.0733 6.848 91.5213 6.98133 91.8093 7.248C92.0973 7.504 92.2413 7.89333 92.2413 8.416V10.56H92.4013V8.416C92.4013 7.86133 92.2413 7.44 91.9213 7.152C91.6013 6.85333 91.116 6.704 90.4653 6.704H90.2893C90.6733 6.58667 90.9293 6.37333 91.0573 6.064C91.1853 5.744 91.2493 5.33867 91.2493 4.848V3.744C91.2493 3.22133 91.1 2.78933 90.8013 2.448C90.5026 2.096 90.044 1.92 89.4253 1.92H85.7773V10.56H85.9373ZM87.0893 12H84.6253C84.4226 12 84.2733 11.9573 84.1773 11.872C84.092 11.776 84.0493 11.6267 84.0493 11.424V1.056C84.0493 0.853333 84.092 0.709333 84.1773 0.624C84.2733 0.528 84.4226 0.48 84.6253 0.48H89.9533C91.148 0.48 91.9693 0.730666 92.4173 1.232C92.876 1.72267 93.1053 2.36267 93.1053 3.152V3.888C93.1053 4.336 93.036 4.72 92.8973 5.04C92.7693 5.34933 92.54 5.57333 92.2093 5.712C92.7853 5.776 93.2493 6.01067 93.6013 6.416C93.964 6.82133 94.1453 7.36 94.1453 8.032V11.424C94.1453 11.6267 94.0973 11.776 94.0013 11.872C93.916 11.9573 93.772 12 93.5693 12H91.0893C90.8866 12 90.7373 11.9573 90.6413 11.872C90.556 11.776 90.5133 11.6267 90.5133 11.424V8.976C90.5133 8.74133 90.4653 8.57067 90.3693 8.464C90.284 8.34667 90.1293 8.288 89.9053 8.288H87.6653V11.424C87.6653 11.6267 87.6173 11.776 87.5213 11.872C87.436 11.9573 87.292 12 87.0893 12Z" fill="#EAED13"/>
</svg>
